<svg xmlns="http://www.w3.org/2000/svg" viewBox="0 0 16 13"><defs><style>.cls-1{fill:#848585;}</style></defs><title>Asset 1</title><g id="Layer_2" data-name="Layer 2"><g id="twitter"><path class="cls-1" d="M13.6,1a3.68,3.68,0,0,0-2.76-1A3.23,3.23,0,0,0,8,4C4.52,4.09,1.15.54,1.15.54a3.44,3.44,0,0,0,.91,4.4A2,2,0,0,1,.67,4.45a3.19,3.19,0,0,0,2.55,3.4s-1.07.21-1.4,0c0,0,.2,2.12,2.94,2.39A5.35,5.35,0,0,1,0,11.46s2.88,2.86,9.05.79a9,9,0,0,0,5.49-8.94A6.11,6.11,0,0,0,16,2l-1.61,0S15.7,1.24,15.76.12A6.14,6.14,0,0,1,13.6,1Z"/></g></g></svg>