<svg xmlns="http://www.w3.org/2000/svg" viewBox="0 0 13.45 13.55"><defs><style>.cls-1{fill:#848585;}</style></defs><title>Asset 8</title><g id="Layer_2" data-name="Layer 2"><g id="Layer_1-2" data-name="Layer 1"><path class="cls-1" d="M11,13.55H2.7l1.16-1.5h7.07a1,1,0,0,0,.62-.16,1.25,1.25,0,0,0,.28-.9.9.9,0,0,0-.23-.68,1.14,1.14,0,0,0-.73-.2H8.17a2.61,2.61,0,0,1-2.71-2.6,2.71,2.71,0,0,1,2.6-2.64h2.12a.78.78,0,0,1,.81.75.78.78,0,0,1-.81.75h-2A1.16,1.16,0,0,0,7.08,7.51a1,1,0,0,0,1.11,1.1H10.8a2.89,2.89,0,0,1,1.88.59A2.22,2.22,0,0,1,13.45,11a2.5,2.5,0,0,1-.83,2A2.49,2.49,0,0,1,11,13.55Z"/><path class="cls-1" d="M2.2,7.18a2.12,2.12,0,0,0-2.2,2c0,1.12,2.2,4,2.2,4s2.19-2.91,2.19-4A2.11,2.11,0,0,0,2.2,7.18Zm0,3a.87.87,0,1,1,0-1.74.87.87,0,1,1,0,1.74Z"/><path class="cls-1" d="M11.17,0A1.86,1.86,0,0,0,9.24,1.78c0,1,1.93,3.54,1.93,3.54S13.1,2.77,13.1,1.78A1.87,1.87,0,0,0,11.17,0Zm0,2.66a.8.8,0,0,1-.83-.76A.83.83,0,0,1,12,1.9.8.8,0,0,1,11.17,2.66Z"/></g></g></svg>