<svg xmlns="http://www.w3.org/2000/svg" viewBox="0 0 17.39 12.56"><defs><style>.cls-1{fill:none;stroke-linecap:round;}.cls-1,.cls-3{stroke:#848585;stroke-miterlimit:10;}.cls-2{fill:#848585;}.cls-3{fill:#fff;}</style></defs><title>Asset 7</title><g id="Layer_2" data-name="Layer 2"><g id="Layer_1-2" data-name="Layer 1"><line class="cls-1" x1="16.89" y1="9.05" x2="10.4" y2="9.05"/><line class="cls-1" x1="11.28" y1="5.67" x2="12.44" y2="5.67"/><path class="cls-2" d="M11.86,0H2.65A2.65,2.65,0,0,0,0,2.65V6.8A2.77,2.77,0,0,0,2.76,9.56H13A2.77,2.77,0,0,0,15.78,6.8V3.93A3.93,3.93,0,0,0,11.86,0ZM7.18,4.1a1.6,1.6,0,0,1-1.6,1.6H3.12a1.6,1.6,0,0,1-1.6-1.6V3.79a1.6,1.6,0,0,1,1.6-1.6H5.58a1.6,1.6,0,0,1,1.6,1.6Zm5,3.49c0,1-1,1-1.84,1s-1.74,0-1.74-1V3.39A1.4,1.4,0,0,1,10,2h.78a1.4,1.4,0,0,1,1.4,1.4Z"/><circle class="cls-3" cx="4.88" cy="10.01" r="2.05"/></g></g></svg>